<?xml version="1.0" encoding="utf-8"?>
<!-- Generator: Adobe Illustrator 19.2.1, SVG Export Plug-In . SVG Version: 6.00 Build 0)  -->
<svg version="1.1" xmlns="http://www.w3.org/2000/svg" xmlns:xlink="http://www.w3.org/1999/xlink" x="0px" y="0px"
	 viewBox="0 0 759.9 1370.3" style="enable-background:new 0 0 759.9 1370.3;" xml:space="preserve">
<style type="text/css">
	.st0{fill:#4CAF9B;}
	.st1{fill:#4DB197;}
	.st2{fill:none;stroke:#F5911E;stroke-width:5;stroke-linecap:round;stroke-linejoin:round;stroke-miterlimit:10;}
	.st3{font-family:'ArialMT';}
	.st4{font-size:17px;}
	.st5{font-size:13.248px;}
	.st6{font-size:14.512px;}
</style>
<g id="map__x3D__x3D__x3D__x3D__x3D__x3D__x3D__x3D_">
	<rect x="0.3" y="-0.5" class="st0" width="26" height="26"/>
	<rect x="734.3" y="1343.5" class="st1" width="26" height="26"/>
</g>
<g id="yurredla">
	<path class="st2" d="M323.7,593.3c0,0-26.7,22.7-50.7,41.7c-18.9,15-24.1,31.3-33.7,36"/>
	<text transform="matrix(0.7475 -0.6642 0.6642 0.7475 254.2362 650.184)" class="st3 st4">Yurredla</text>
</g>
<g id="womensdownhill">
	<path class="st2" d="M347.7,656c-15.3,13.3-37.7,35.1-43.7,37.6s-25.3,3.1-35.7,10.8c-10.3,7.7-45.7,31-49.7,43.3s6,26.8,8.3,30.6"
		/>
	<text transform="matrix(0.85 -0.5268 0.5268 0.85 220.2767 745.9467)" class="st3 st4">Woman’s Downhill</text>
</g>
<g id="woodrun">
	<path class="st2" d="M299,817.3c0,0-68.8-8.2-63.9-24.3"/>
	<text transform="matrix(1 0 0 1 253.9512 818.667)" class="st3 st4">Wood R.</text>
</g>
<g id="wombat">
	<path class="st2" d="M254.5,524.5l-78,23L114,538l-40,10c0,0-34-3-39.5-26"/>
	<text transform="matrix(1 0 0 1 135.4141 536.2119)" class="st3 st4">Wombat</text>
</g>
<g id="whiskeycreektrail">
	<path class="st2" d="M37,567c-7,5.5-1.7,16.5,12.7,20S86,598,87,609.5s21.8,11.9,30.5,17.5c15.5,10,41.4,26.5,41.4,26.5"/>
	<text transform="matrix(0.8517 0.5241 -0.5241 0.8517 33.9799 600.9558)" class="st3 st4">Whisky Creek Trail</text>
</g>
<g id="wenzelsweave">
	<path class="st2" d="M406,522c10.5-1.5,30.9-0.3,35-5.3c4.1-5,16-22.5,32.5-14.2c3.8,1.9,36.1,42.6,48.5,54.9"/>
	<text transform="matrix(1 0 0 1 383.3257 516.7275)"><tspan x="0" y="0" class="st3 st5">Wenzels</tspan><tspan x="4.8" y="14" class="st3 st5">Weave</tspan></text>
</g>
<g id="waler">
	<path class="st2" d="M618.3,716.3c12.3-4.5,15.6-11.5,26.5-10.9s21.3-3.6,19.8,13.9"/>
	<text transform="matrix(0.9563 -0.2925 0.2925 0.9563 616.6387 711.3857)" class="st3 st4">Waler</text>
</g>
<g id="vista">
	<path class="st2" d="M412.3,573c9.4,8,29.3,19.7,38,20.3c8.7,0.7,18.9,3.9,20.4,5.9c9-5,36.8-19.1,53.6-22.3"/>
	<text transform="matrix(1 0 0 1 453.5781 612.7119)" class="st3 st4">Vista</text>
</g>
<g id="village">
	<polyline class="st2" points="441.7,920.5 475.1,936 495,936 527,959.8 551.3,976.2 	"/>
	<text transform="matrix(0.9387 0.3446 -0.3446 0.9387 463.7406 950.6858)" class="st3 st4">Village</text>
</g>
<g id="powderkeg">
	<path class="st2" d="M286,501.4c-10.5-6.4-100.2-53.7-127.1-45.3"/>
	<text transform="matrix(0.9247 0.3807 -0.3807 0.9247 175.2972 458.1497)" class="st3 st4">Powder Keg</text>
</g>
<g id="tirol">
	<polyline class="st2" points="447.3,702.4 530.8,927.3 530.8,942 555.2,960 	"/>
	<text transform="matrix(0 1 -1 0 482.3516 786.8071)" class="st3 st4">Tirol</text>
</g>
<g id="XXsouthside">
</g>
<g id="standard">
	<path class="st2" d="M223,792l-32,67.3l73.4-23.9l27.2,8.2c4.3-4.3,31.1-40.3,37.4-45.7"/>
	<text transform="matrix(0 1 -1 0 191.0166 810.1704)" class="st3 st4">Standard</text>
</g>
<g id="summit">
	<line class="st2" x1="457" y1="423.3" x2="388.3" y2="498.7"/>
	<text transform="matrix(0 1 -1 0 410.3506 442.6924)" class="st3 st4">Summit</text>
</g>
<g id="slalomgully_1_">
	<line class="st2" x1="430.3" y1="412.7" x2="366.3" y2="375.3"/>
	<text transform="matrix(0.876 0.4823 -0.4823 0.876 364.6899 366.7351)"><tspan x="0" y="0" class="st3 st4">Slalom</tspan><tspan x="6.6" y="15" class="st3 st4">Gully</tspan></text>
</g>
<g id="scvhutrun">
	<path class="st2" d="M466,463c10.1,5.5,39.8,21.5,47.1,26.7c7.3,5.3,9.9,26.7,25.4,39.5c-8.5,12-3,30.2-0.2,32.2"/>
	<text transform="matrix(0.664 0.7478 -0.7478 0.664 457.7754 460.6412)" class="st3 st4">SCV Hut Run</text>
</g>
<g id="sunvalley">
	<path class="st2" d="M353,672c0,0-28.7,63.5-61.4,74"/>
	<text transform="matrix(0.6615 -0.75 0.75 0.6615 291.5073 751.6439)" class="st3 st4">SunValley</text>
</g>
<g id="summitslide">
	<polyline class="st2" points="523,557.3 452.3,476 453.7,444 	"/>
	<text transform="matrix(0.664 0.7478 -0.7478 0.664 441.8832 475.355)" class="st3 st4">Summit Slide</text>
</g>
<g id="skyline">
	<line class="st2" x1="368.3" y1="659.3" x2="353" y2="771.3"/>
	<text transform="matrix(0 1 -1 0 360.0166 694.9341)" class="st3 st4">Skyline</text>
</g>
<g id="shakeyknees">
	<line class="st2" x1="424" y1="777" x2="489.7" y2="837.7"/>
	<text transform="matrix(0.7488 0.6628 -0.6628 0.7488 402.4386 779.7267)" class="st3 st4">Shakey Knees</text>
</g>
<g id="ridgerun">
	<path class="st2" d="M538.3,561.5c-6.8-14.5-4.3-30,1.4-33.1c5.6-3.1,22.1-9.7,32.9-14.9s9.8-13.8,4.3-18.2
		C571.2,490.8,527,454,527,454h-15.5l-44.3-11.2"/>
	<text transform="matrix(0.7457 0.6663 -0.6663 0.7457 523.9412 436.9998)" class="st3 st4">Ridge Run</text>
</g>
<g id="roughcut">
	<path class="st2" d="M239.3,671c-13.5,8.5-50.8,4.5-67.3-5.5"/>
	<text transform="matrix(0 1 -1 0 208.7988 637.0581)"><tspan x="0" y="0" class="st3 st4">Rough</tspan><tspan x="11.8" y="16" class="st3 st4">Cut</tspan></text>
</g>
<g id="robins">
	<path class="st2" d="M271,519.4c-10.5-6.4-109.6-38.8-136.4-30.4"/>
	<text transform="matrix(1 0 0 1 120.998 505.9941)" class="st3 st4">Robin’s</text>
</g>
<g id="rushrun">
	<path class="st2" d="M464.4,449.3c10.1,5.5,51.3,25.3,58.6,30.5c7.3,5.3-0.1,36.7,15.5,49.5c-8.5,12-3,30.2-0.2,32.2"/>
	<text transform="matrix(0.7938 0.6082 -0.6082 0.7938 493.0657 467.6211)" class="st3 st4">Rush Run</text>
</g>
<g id="plughole">
	<line class="st2" x1="325.7" y1="771.3" x2="243" y2="786"/>
	<text transform="matrix(1 0 0 1 261.4138 773.0459)"><tspan x="0" y="0" class="st3 st4">Plug</tspan><tspan x="-0.5" y="15" class="st3 st4">Hole</tspan></text>
</g>
<g id="thulkes">
	<path class="st2" d="M261.5,424.5c-10-1-81.9-2.3-94,3.4"/>
	<text transform="matrix(1 0 0 1 188.5107 438.748)" class="st3 st4">Thulke’s</text>
</g>
<g id="outeredge">
	<path class="st2" d="M246,392.5c-8.5,0.5-52.1-3.1-59,3.5c-17.5,16.7-41.9,90.5-u52.4,93s-30.6,5.1-40.6,9.8
		c-10,4.7-43.9,5.1-47.5,5.7s-8.5,4.4-12,8.3"/>
	<text transform="matrix(1 0 0 1 153.7246 386.2431)" class="st3 st4">Outer Edge</text>
</g>
<g id="mensdownhill">
	<path class="st2" d="M339,602.3c-5.6,8.3-33.5,43-36.9,60.7c-3.4,17.7-45.8,27.1-53.5,30.6"/>
	<text transform="matrix(0.6618 -0.7497 0.7497 0.6618 278.5554 695.0056)" class="st3 st4">Men’s Downhill</text>
</g>
<g id="littlebullerspur">
	<polyline class="st2" points="259,539.5 178,561.5 70,558 46.5,561 	"/>
	<text transform="matrix(1 0 0 1 47.7964 574.8125)" class="st3 st4">Little Buller Spur</text>
</g>
<g id="laycockslane">
	<path class="st2" d="M411,558.5c17.5,15.4,75.8,25.2,110.3,20.5"/>
	<g>
		<text transform="matrix(0.9596 0.2815 -0.2815 0.9596 380.2205 551.3691)" class="st3 st4">Laycock’s Lane</text>
	</g>
</g>
<g id="happyfeet">
	<line class="st2" x1="440.2" y1="630" x2="451.2" y2="671"/>
	<text transform="matrix(0.2807 0.9598 -0.9598 0.2807 414.8858 604.7089)" class="st3 st4">Happy Feet</text>
</g>
<g id="howqua">
	<path class="st2" d="M445.7,422c0,0-34,10.7-41.3,12.7c-7.3,2-22-4.7-26-12.7s-24.7-43.3-24.7-43.3"/>
	<text transform="matrix(0.6728 0.7398 -0.7398 0.6728 353.2532 405.0688)" class="st3 st4">Howqua</text>
</g>
<g id="hoggsback">
	<path class="st2" d="M360.7,665.5c0,0-16,81-54.3,86.5"/>
	<g>
		<text transform="matrix(0.5014 -0.8652 0.8652 0.5014 316.4611 764.9211)"><tspan x="0" y="0" class="st3 st4">Hogg’s</tspan><tspan x="7.6" y="16" class="st3 st4">Back</tspan></text>
	</g>
</g>
<g id="gliders">
	<line class="st2" x1="466.2" y1="700" x2="498.3" y2="708.3"/>
	<text transform="matrix(0.9614 0.275 -0.275 0.9614 459.5033 691.361)" class="st3 st4">Gliders</text>
</g>
<g id="fannysfinish">
	<path class="st2" d="M451.7,413.3c0,0-11.3-62.7-15.3-74.7s-36.7-23.3-48-12.7c-11.3,10.7-40.7,46.7-40.7,46.7"/>
	<text transform="matrix(1 0 0 1 346.896 325.0107)" class="st3 st4">Fanny’s Finish</text>
</g>
<g id="funnel">
	<path class="st2" d="M322.7,786.3c0,0-56.7,27.9-81,7.3"/>
	<text transform="matrix(0.9713 -0.2378 0.2378 0.9713 271.0834 806.6642)" class="st3 st4">Funnel</text>
</g>
<g id="fastone">
	<line class="st2" x1="441.7" y1="412.7" x2="397" y2="333.3"/>
	<text transform="matrix(0 1 -1 0 415.0166 336.3759)" class="st3 st4">Fast One</text>
</g>
<g id="fallline">
	<path class="st2" d="M264,827.3c0,0-39.8-16.2-34.9-32.3"/>
	<text transform="matrix(1 0 0 1 215.6572 832.001)" class="st3 st4">Fall Line</text>
</g>
<g id="federation">
	<line class="st2" x1="315.7" y1="584.7" x2="163" y2="658"/>
	<text transform="matrix(0.9027 -0.4303 0.4303 0.9027 193.6738 636.8539)" class="st3 st4">Federation</text>
</g>
<g id="familyrun">
	<path class="st2" d="M345,483.3l-35.3-24.7L261,412c0,0-10.7-35.3-12-43.3c-1.3-8,16-8,16-8l36.7,16.7l37.3,3.3"/>
	<text transform="matrix(0 1 -1 0 269.5186 339.3525)" class="st3 st4">Family Run</text>
</g>
<g id="elephantrun">
	<polyline class="st2" points="355,968.7 306.3,970 293.7,946.7 	"/>
	<text transform="matrix(1 0 0 1 270.6689 987.8799)" class="st3 st4">Elephant</text>
</g>
<g id="damrun">
	<polyline class="st2" points="521.7,718 551,740 583.7,822 	"/>
	<text transform="matrix(0.3893 0.9211 -0.9211 0.3893 554.3469 736.1755)" class="st3 st4">Dam Run</text>
</g>
<g id="crosscut">
	<path class="st2" d="M327.1,379.6c0,0-16.5-1.9-21.7-1.9c-5.2,0-13.3,15.2-13.8,25.7c-0.5,10.5-6.3,32-1.2,36.9
		c6,5.7,6.5,6.9,6.5,6.9"/>
	<text transform="matrix(0 1 -1 0 288.9873 375.9101)" class="st3 st6">CrossCut</text>
</g>
<g id="colt">
	<path class="st2" d="M579.8,707c12.3-4.5,22.1-14.6,33-14c11,0.6,25.1-27.2,30.8-27.5c5.5-0.3,11.8,1.3,13.5,6.8s9,29.5,7.5,47"/>
	<text transform="matrix(0.9363 -0.3513 0.3513 0.9363 597.4442 697.7955)" class="st3 st4">Colt</text>
</g>
<g id="chamois">
	<polyline class="st2" points="369,964.7 323.7,935.3 289,933.3 	"/>
	<text transform="matrix(0.916 0.4013 -0.4013 0.916 301.8932 916.8285)" class="st3 st4">Chamois</text>
</g>
<g id="cut73">
	<path class="st2" d="M262.7,844.7c0,0-23.3,20.3-19.7,41.3c0.9,5,25.5,19.9,29.7,23.7c4.1,3.7,7.5,21,7.5,21"/>
	<text transform="matrix(0 1 -1 0 254.0166 843.3188)" class="st3 st4">Cut73</text>
</g>
<g id="chute">
	<line class="st2" x1="342.3" y1="458.3" x2="334" y2="396"/>
	<text transform="matrix(0 1 -1 0 331.0186 404.5688)" class="st3 st4">Chute</text>
</g>
<g id="cowcamp">
	<polyline class="st2" points="472.8,888.5 491.7,899 512,917.3 524.3,936.8 554.7,960.3 	"/>
	<text transform="matrix(0.7013 0.7129 -0.7129 0.7013 459.0727 885.7889)" class="st3 st4">Cow Camp</text>
</g>
<g id="cattlemanstrail">
	<path class="st2" d="M579.8,831.2c-6.1,2.8-6.6,10.5,0,22.6c6.6,12.2,24.8,40.8,1,92.8"/>
	<text transform="matrix(0 1 -1 0 587.9873 841.52)" class="st3 st6">Cattleman’sTrail</text>
</g>
<g id="chaletcreek">
	<line class="st2" x1="512" y1="724.5" x2="590.5" y2="1005"/>
	<text transform="matrix(0 1 -1 0 543.0176 807.9526)" class="st3 st4">Chalet Creek</text>
</g>
<g id="boomerang">
	<path class="st2" d="M344.3,469.8c0,0-34.8-18.8-34.3-43.8s21.3-40,21.3-40"/>
	<text transform="matrix(0 1 -1 0 312.5186 382.8061)" class="st3 st4">Boomerang</text>
</g>
<g id="brumby">
	<path class="st2" d="M521.7,694c12.3-4.5,79.5-20.1,90.3-19.6s26-8.7,31.5-8.9s11.8,1.3,13.5,6.8s9,29.5,7.5,47"/>
	<text transform="matrix(0.9786 -0.2059 0.2059 0.9786 551.7463 678.4732)" class="st3 st4">Brumby</text>
</g>
<g id="bloodyhell">
	<path class="st2" d="M181,570.5c-13.5,8.5-18,64.2-18,75.8"/>
	<text transform="matrix(0 1 -1 0 178.0176 582.2603)"><tspan x="0" y="0" class="st3 st4">Bloody</tspan><tspan x="11.3" y="16" class="st3 st4">Hell</tspan></text>
</g>
<g id="boggycreek">
	<line class="st2" x1="406" y1="540" x2="511.5" y2="565"/>
	<text transform="matrix(1 0 0 1 440.957 540.3779)"><tspan x="0" y="0" class="st3 st4">Boggy</tspan><tspan x="1.4" y="16" class="st3 st4">Creek</tspan></text>
</g>
<g id="burnthutspur">
	<line class="st2" x1="524.3" y1="705.3" x2="662.3" y2="724.7"/>
	<text transform="matrix(0.9865 0.1638 -0.1638 0.9865 558.0947 726.238)" class="st3 st4">Burnt Hut Spur</text>
</g>
<g id="bullrun">
	<line class="st2" x1="241.7" y1="776.7" x2="357.7" y2="656"/>
	<text transform="matrix(0.6941 -0.7199 0.7199 0.6941 245.073 766.1653)" class="st3 st4">Bull Run</text>
</g>
<g id="boulders">
	<path class="st2" d="M243,670.6c-30.5,7.9-45,35.4-75.5,16.4"/>
	<text transform="matrix(1 0 0 1 160.6787 709.5469)" class="st3 st4">Boulders</text>
</g>
<g id="bourkest">
	<line class="st2" x1="385" y1="798" x2="396" y2="909.7"/>
	<text transform="matrix(0 1 -1 0 383.0176 819.3345)" class="st3 st4">Bourke St</text>
</g>
<g id="baldy">
	<line class="st2" x1="391.7" y1="642.7" x2="380.3" y2="776"/>
	<text transform="matrix(0 1 -1 0 390.6846 691.0718)" class="st3 st4">Baldy</text>
</g>
</svg>
